<svg width="30" height="28" viewBox="0 0 30 28" fill="none" xmlns="http://www.w3.org/2000/svg">
<path d="M4.4412 18.099C2.4294 16.2762 0.937201 13.8864 0.302401 11.1972C-0.163799 9.2226 0.0480013 8.1258 0.0480013 8.1258C0.440401 3.7074 3.5616 0 7.8954 0C10.6014 0 12.858 1.4214 14.2284 3.5796L14.2164 3.5718L9.756 10.1124L18.4482 11.2716L11.613 17.5374L16.6812 20.7048L14.5056 27.2322L4.4412 18.099ZM29.6976 11.1984C29.0628 13.8876 27.5706 16.2768 25.5588 18.0996L15.96 26.6634L18.1182 20.1882L13.5864 17.3556L21.1512 10.4214L11.844 9.1812L15.0612 4.4628C15.0918 4.4406 15.1212 4.4154 15.1404 4.377C16.449 1.7766 19.0764 0.000599957 22.104 0.000599957C26.4378 0.000599957 29.559 3.708 29.9514 8.1264C29.9514 8.1264 30.1638 9.2238 29.6976 11.1984Z" fill="white"/>
</svg>
